<?xml version="1.0" encoding="UTF-8" standalone="no"?>
<!-- Created with Inkscape (http://www.inkscape.org/) -->

<svg
   xmlns:dc="http://purl.org/dc/elements/1.1/"
   xmlns:cc="http://creativecommons.org/ns#"
   xmlns:rdf="http://www.w3.org/1999/02/22-rdf-syntax-ns#"
   xmlns:svg="http://www.w3.org/2000/svg"
   xmlns="http://www.w3.org/2000/svg"
   xmlns:sodipodi="http://sodipodi.sourceforge.net/DTD/sodipodi-0.dtd"
   xmlns:inkscape="http://www.inkscape.org/namespaces/inkscape"
   version="1.1"
   id="svg2"
   xml:space="preserve"
   width="604"
   height="377.33334"
   viewBox="0 0 604 377.33334"
   sodipodi:docname="prior_like_post.svg"
   inkscape:version="0.92.2 5c3e80d, 2017-08-06"><metadata
     id="metadata8"><rdf:RDF><cc:Work
         rdf:about=""><dc:format>image/svg+xml</dc:format><dc:type
           rdf:resource="http://purl.org/dc/dcmitype/StillImage" /><dc:title></dc:title></cc:Work></rdf:RDF></metadata><defs
     id="defs6"><clipPath
       clipPathUnits="userSpaceOnUse"
       id="clipPath30"><path
         d="M 0,0 H 453.54 V 283.46 H 0 Z"
         id="path28"
         inkscape:connector-curvature="0" /></clipPath><clipPath
       clipPathUnits="userSpaceOnUse"
       id="clipPath40"><path
         d="M 5.57,62.47 H 450.7 V 277.79 H 5.57 Z"
         id="path38"
         inkscape:connector-curvature="0" /></clipPath></defs><sodipodi:namedview
     pagecolor="#ffffff"
     bordercolor="#666666"
     borderopacity="1"
     objecttolerance="10"
     gridtolerance="10"
     guidetolerance="10"
     inkscape:pageopacity="0"
     inkscape:pageshadow="2"
     inkscape:window-width="1280"
     inkscape:window-height="706"
     id="namedview4"
     showgrid="false"
     inkscape:zoom="1.089404"
     inkscape:cx="161.21201"
     inkscape:cy="225.384"
     inkscape:window-x="0"
     inkscape:window-y="1"
     inkscape:window-maximized="1"
     inkscape:current-layer="g10" /><g
     id="g10"
     inkscape:groupmode="layer"
     inkscape:label="prior_like_post"
     transform="matrix(1.3333333,0,0,-1.3333333,0,377.33333)"><g
       id="g12" /><g
       id="g14" /><g
       id="g16" /><g
       id="g18" /><g
       id="g20" /><g
       id="g22" /><g
       id="g24"><g
         id="g26"
         clip-path="url(#clipPath30)" /></g><g
       id="g32" /><g
       id="g34"
       inkscape:export-filename="/Users/timoroettger/repos/bayes_mixed_regression_tutorial/text/pics/prior_post.png"
       inkscape:export-xdpi="300"
       inkscape:export-ydpi="300"><g
         id="g36"
         clip-path="url(#clipPath40)"><path
           d="m 25.81,72.26 h 0.79 0.79 0.79 0.8 0.79 0.79 0.79 0.79 0.79 0.8 0.79 0.79 0.79 0.79 0.8 0.79 0.79 0.79 0.79 0.8 0.79 0.79 0.79 0.79 0.8 0.79 0.79 0.79 0.79 0.8 0.79 0.79 0.79 0.79 0.79 0.8 0.79 0.79 0.79 0.79 0.8 0.79 0.79 0.79 0.79 0.8 0.79 0.79 0.79 0.79 0.8 0.79 0.79 0.79 0.79 0.79 0.8 0.79 0.79 0.79 0.79 0.8 0.79 0.79 0.79 0.79 0.8 0.79 l 0.79,0.01 h 0.79 0.79 0.8 0.79 0.79 0.79 l 0.79,0.01 h 0.8 0.79 0.79 0.79 l 0.79,0.01 h 0.79 0.8 l 0.79,0.01 0.79,0.01 h 0.79 0.79 l 0.8,0.01 h 0.79 0.79 l 0.79,0.01 h 0.79 l 0.8,0.01 0.79,0.01 0.79,0.01 0.79,0.01 0.79,0.01 0.8,0.01 0.79,0.02 0.79,0.01 0.79,0.02 0.79,0.02 0.79,0.01 0.8,0.02 0.79,0.02 0.79,0.02 0.79,0.02 0.79,0.02 0.8,0.03 0.79,0.02 0.79,0.03 0.79,0.03 0.79,0.04 0.8,0.04 0.79,0.04 0.79,0.04 0.79,0.04 0.79,0.06 0.8,0.06 0.79,0.06 0.79,0.06 0.79,0.07 0.79,0.08 0.79,0.07 0.8,0.09 0.79,0.09 0.79,0.1 0.79,0.09 0.79,0.1 0.8,0.11 0.79,0.11 0.79,0.12 0.79,0.15 0.79,0.15 0.8,0.15 0.79,0.16 0.79,0.16 0.79,0.19 0.79,0.18 0.8,0.18 0.79,0.18 0.79,0.2 0.79,0.21 0.79,0.25 0.8,0.26 0.79,0.27 0.79,0.28 0.79,0.3 0.79,0.32 0.79,0.35 0.8,0.36 0.79,0.38 0.79,0.39 0.79,0.41 0.79,0.42 0.8,0.44 0.79,0.46 0.79,0.47 0.79,0.48 0.79,0.51 0.8,0.54 0.79,0.55 0.79,0.56 0.79,0.59 0.79,0.65 0.8,0.69 0.79,0.74 0.79,0.75 0.79,0.78 0.79,0.81 0.79,0.82 0.8,0.82 0.79,0.82 0.79,0.85 0.79,0.89 0.79,0.94 0.8,0.98 0.79,1.01 0.79,1.06 0.79,1.09 0.79,1.11 0.8,1.12 0.79,1.14 0.79,1.17 0.79,1.2 0.79,1.22 0.8,1.23 0.79,1.26 0.79,1.34 0.79,1.42 0.79,1.45 0.8,1.47 0.79,1.46 0.79,1.48 0.79,1.54 0.79,1.6 0.79,1.62 0.8,1.6 0.79,1.56 0.79,1.57 0.79,1.63 0.79,1.69 0.8,1.72 0.79,1.75 0.79,1.75 0.79,1.76 0.79,1.74 0.8,1.69 0.79,1.67 0.79,1.68 0.79,1.74 0.79,1.79 0.8,1.82 0.79,1.79 0.79,1.77 0.79,1.76 0.79,1.79 0.79,1.79 0.8,1.76 0.79,1.69 0.79,1.65 0.79,1.67 0.79,1.7 0.8,1.73 0.79,1.73 0.79,1.71 0.79,1.65 0.79,1.57 0.8,1.48 0.79,1.41 0.79,1.37 0.79,1.39 0.79,1.38 0.8,1.33 0.79,1.23 0.79,1.16 0.79,1.14 0.79,1.18 0.79,1.19 0.8,1.14 0.79,1.06 0.79,0.95 0.79,0.84 0.79,0.72 0.8,0.66 0.79,0.64 0.79,0.6 0.79,0.53 0.79,0.46 0.8,0.4 0.79,0.33 0.79,0.24 0.79,0.15 0.79,0.1 0.8,0.07 0.79,0.02 0.79,-0.02 0.79,-0.11 0.79,-0.24 0.8,-0.36 0.79,-0.44 0.79,-0.48 0.79,-0.49 0.79,-0.49 0.79,-0.49 0.8,-0.54 0.79,-0.67 0.79,-0.82 0.79,-0.93 0.79,-0.93 0.8,-0.9 0.79,-0.92 0.79,-1.04 0.79,-1.21 0.79,-1.31 0.8,-1.33 0.79,-1.28 0.79,-1.23 0.79,-1.26 0.79,-1.35 0.8,-1.44 0.79,-1.52 0.79,-1.57 0.79,-1.61 0.79,-1.65 0.79,-1.67 0.8,-1.68 0.79,-1.69 0.79,-1.69 0.79,-1.68 0.79,-1.68 0.8,-1.7 0.79,-1.74 0.79,-1.74 0.79,-1.73 0.79,-1.73 0.8,-1.74 0.79,-1.75 0.79,-1.76 0.79,-1.77 0.79,-1.76 0.8,-1.76 0.79,-1.74 0.79,-1.74 0.79,-1.71 0.79,-1.68 0.8,-1.67 0.79,-1.7 0.79,-1.71 0.79,-1.69 0.79,-1.64 0.79,-1.61 0.8,-1.63 0.79,-1.65 0.79,-1.64 0.79,-1.58 0.79,-1.53 0.8,-1.49 0.79,-1.48 0.79,-1.45 0.79,-1.42 0.79,-1.38 0.8,-1.34 0.79,-1.3 0.79,-1.29 0.79,-1.28 0.79,-1.25 0.8,-1.2 0.79,-1.13 0.79,-1.07 0.79,-1.06 0.79,-1.03 0.79,-1.02 0.8,-0.99 0.79,-0.97 0.79,-0.97 0.79,-0.96 0.79,-0.92 0.8,-0.86 0.79,-0.82 0.79,-0.79 0.79,-0.77 0.79,-0.76 0.8,-0.72 0.79,-0.68 0.79,-0.65 0.79,-0.64 0.79,-0.63 0.8,-0.62 0.79,-0.58 0.79,-0.53 0.79,-0.5 0.79,-0.47 0.79,-0.47 0.8,-0.47 0.79,-0.46 0.79,-0.45 0.79,-0.42 0.79,-0.4 0.8,-0.36 0.79,-0.33 0.79,-0.31 0.79,-0.3 0.79,-0.3 0.8,-0.29 0.79,-0.27 0.79,-0.26 0.79,-0.24 0.79,-0.23 0.8,-0.21 0.79,-0.21 0.79,-0.2 0.79,-0.19 0.79,-0.18 0.8,-0.18 0.79,-0.16 0.79,-0.15 0.79,-0.13 0.79,-0.12 0.79,-0.11 0.8,-0.11 0.79,-0.11 0.79,-0.12 0.79,-0.11 0.79,-0.11 0.8,-0.08 0.79,-0.07 0.79,-0.07 0.79,-0.06 0.79,-0.05 0.8,-0.06 0.79,-0.06 0.79,-0.05 0.79,-0.05 0.79,-0.05 0.8,-0.05 0.79,-0.05 0.79,-0.04 0.79,-0.04 0.79,-0.03 0.79,-0.02 0.8,-0.03 0.79,-0.03 0.79,-0.03 0.79,-0.02 0.79,-0.03 0.8,-0.02 0.79,-0.02 0.79,-0.02 0.79,-0.01 0.79,-0.02 0.8,-0.01 0.79,-0.01 0.79,-0.01 0.79,-0.01 0.79,-0.01 0.8,-0.01 0.79,-0.01 0.79,-0.01 h 0.79 l 0.79,-0.01 h 0.8 0.79 l 0.79,-0.01 h 0.79 0.79 l 0.79,-0.01 0.8,-0.01 h 0.79 l 0.79,-0.01 h 0.79 0.79 0.8 0.79 0.79 0.79 0.79 l 0.8,-0.01 h 0.79 0.79 0.79 0.79 0.8 0.79 0.79 0.79 0.79 l 0.79,-0.01 h 0.8 0.79 0.79 0.79 0.79 0.8 0.79 0.79 0.79 0.79 0.8 0.79 0.79 0.79 0.79 0.8 0.79 0.79 0.79 0.79 0.79 0.8 0.79 0.79 0.79 0.79 0.8 0.79 0.79 0.79 0.79 0.8 0.79 0.79 0.79 0.79 0.8 0.79 0.79 0.79 0.79 0.8 0.79 0.79 0.79 0.79 0.79 0.8 0.79 0.79 0.79 0.79 0.8 0.79 0.79 0.79 0.79 0.8 0.79 0.79 0.79 0.79 0.8 v 0 h -0.8 -0.79 -0.79 -0.79 -0.79 -0.8 -0.79 -0.79 -0.79 -0.79 -0.8 -0.79 -0.79 -0.79 -0.79 -0.8 -0.79 -0.79 -0.79 -0.79 -0.79 -0.8 -0.79 -0.79 -0.79 -0.79 -0.8 -0.79 -0.79 -0.79 -0.79 -0.8 -0.79 -0.79 -0.79 -0.79 -0.8 -0.79 -0.79 -0.79 -0.79 -0.8 -0.79 -0.79 -0.79 -0.79 -0.79 -0.8 -0.79 -0.79 -0.79 -0.79 -0.8 -0.79 -0.79 -0.79 -0.79 -0.8 -0.79 -0.79 -0.79 -0.79 -0.8 -0.79 -0.79 -0.79 -0.79 -0.79 -0.8 -0.79 -0.79 -0.79 -0.79 -0.8 -0.79 -0.79 -0.79 -0.79 -0.8 -0.79 -0.79 -0.79 -0.79 -0.8 -0.79 -0.79 -0.79 -0.79 -0.79 -0.8 -0.79 -0.79 -0.79 -0.79 -0.8 -0.79 -0.79 -0.79 -0.79 -0.8 -0.79 -0.79 -0.79 -0.79 -0.8 -0.79 -0.79 -0.79 -0.79 -0.8 -0.79 -0.79 -0.79 -0.79 -0.79 -0.8 -0.79 -0.79 -0.79 -0.79 -0.8 -0.79 -0.79 -0.79 -0.79 -0.8 -0.79 -0.79 -0.79 -0.79 -0.8 -0.79 -0.79 -0.79 -0.79 -0.79 -0.8 -0.79 -0.79 -0.79 -0.79 -0.8 -0.79 -0.79 -0.79 -0.79 -0.8 -0.79 -0.79 -0.79 -0.79 -0.8 -0.79 -0.79 -0.79 -0.79 -0.8 -0.79 -0.79 -0.79 -0.79 -0.79 -0.8 -0.79 -0.79 -0.79 -0.79 -0.8 -0.79 -0.79 -0.79 -0.79 -0.8 -0.79 -0.79 -0.79 -0.79 -0.8 -0.79 -0.79 -0.79 -0.79 -0.79 -0.8 -0.79 -0.79 -0.79 -0.79 -0.8 -0.79 -0.79 -0.79 -0.79 -0.8 -0.79 -0.79 -0.79 -0.79 -0.8 -0.79 -0.79 -0.79 -0.79 -0.79 -0.8 -0.79 -0.79 -0.79 -0.79 -0.8 -0.79 -0.79 -0.79 -0.79 -0.8 -0.79 -0.79 -0.79 -0.79 -0.8 -0.79 -0.79 -0.79 -0.79 -0.8 -0.79 -0.79 -0.79 -0.79 -0.79 -0.8 -0.79 -0.79 -0.79 -0.79 -0.8 -0.79 -0.79 -0.79 -0.79 -0.8 -0.79 -0.79 -0.79 -0.79 -0.8 -0.79 -0.79 -0.79 -0.79 -0.79 -0.8 -0.79 -0.79 -0.79 -0.79 -0.8 -0.79 -0.79 -0.79 -0.79 -0.8 -0.79 -0.79 -0.79 -0.79 -0.8 -0.79 -0.79 -0.79 -0.79 -0.8 -0.79 -0.79 -0.79 -0.79 -0.79 -0.8 -0.79 -0.79 -0.79 -0.79 -0.8 -0.79 -0.79 -0.79 -0.79 -0.8 -0.79 -0.79 -0.79 -0.79 -0.8 -0.79 -0.79 -0.79 -0.79 -0.79 -0.8 -0.79 -0.79 -0.79 -0.79 -0.8 -0.79 -0.79 -0.79 -0.79 -0.8 -0.79 -0.79 -0.79 -0.79 -0.8 -0.79 -0.79 -0.79 -0.79 -0.79 -0.8 -0.79 -0.79 -0.79 -0.79 -0.8 -0.79 -0.79 -0.79 -0.79 -0.8 -0.79 -0.79 -0.79 -0.79 -0.8 -0.79 -0.79 -0.79 -0.79 -0.8 -0.79 -0.79 -0.79 -0.79 -0.79 -0.8 -0.79 -0.79 -0.79 -0.79 -0.8 -0.79 -0.79 -0.79 -0.79 -0.8 -0.79 -0.79 -0.79 -0.79 -0.8 -0.79 -0.79 -0.79 -0.79 -0.79 -0.8 -0.79 -0.79 -0.79 -0.79 -0.8 -0.79 -0.79 -0.79 -0.79 -0.8 -0.79 -0.79 -0.79 -0.79 -0.8 -0.79 -0.79 -0.79 -0.79 -0.8 -0.79 -0.79 -0.79 -0.79 -0.79 -0.8 -0.79 -0.79 -0.79 -0.79 -0.8 -0.79 -0.79 -0.79 -0.79 -0.8 -0.79 -0.79 -0.79 -0.79 -0.8 -0.79 -0.79 -0.79 -0.79 -0.79 -0.8 -0.79 -0.79 -0.79 -0.79 -0.8 -0.79 -0.79 -0.79 -0.79 -0.8 -0.79 -0.79 -0.79 -0.79 -0.8 -0.79 -0.79 -0.79 -0.79 -0.79 -0.8 -0.79 -0.79 -0.79 -0.79 -0.8 -0.79 -0.79 -0.79 -0.79 -0.8 -0.79 -0.79 -0.79 -0.79 -0.8 -0.79 -0.79 -0.79 -0.79 -0.8 -0.79 -0.79 -0.79 -0.79 -0.79 -0.8 -0.79 -0.79 -0.79 -0.79 -0.8 -0.79 -0.79 -0.79 -0.79 -0.8 -0.79 -0.79 -0.79 -0.79 -0.8 -0.79 -0.79 -0.79 -0.79 -0.79 -0.8 -0.79 -0.79 -0.79 -0.79 -0.8 -0.79 -0.79 -0.79 -0.79 -0.8 -0.79 -0.79 -0.79 -0.79 -0.8 -0.79 -0.79 -0.79 -0.79 -0.8 -0.79 -0.79 -0.79 -0.79 -0.79 -0.8 -0.79 -0.79 z"
           style="fill:#f1a340;fill-opacity:0.50199998;fill-rule:nonzero;stroke:#f1a340;stroke-width:1.07000005;stroke-linecap:round;stroke-linejoin:round;stroke-miterlimit:10;stroke-dasharray:none;stroke-opacity:1"
           id="path42"
           inkscape:connector-curvature="0" /><path
           d="m 25.81,72.26 h 0.79 0.79 0.79 0.8 0.79 0.79 0.79 0.79 0.79 0.8 0.79 0.79 0.79 0.79 0.8 0.79 0.79 0.79 0.79 0.8 0.79 0.79 0.79 0.79 0.8 0.79 0.79 0.79 0.79 0.8 0.79 0.79 0.79 0.79 0.79 0.8 0.79 0.79 0.79 0.79 0.8 0.79 0.79 0.79 0.79 0.8 0.79 0.79 0.79 0.79 0.8 0.79 0.79 0.79 0.79 0.79 0.8 0.79 0.79 0.79 0.79 0.8 0.79 0.79 0.79 0.79 0.8 0.79 0.79 0.79 0.79 0.8 0.79 0.79 0.79 0.79 0.8 0.79 0.79 0.79 0.79 0.79 0.8 0.79 0.79 0.79 0.79 0.8 0.79 0.79 0.79 0.79 0.8 0.79 0.79 0.79 0.79 0.8 0.79 0.79 0.79 0.79 0.79 0.8 0.79 0.79 0.79 0.79 0.8 0.79 0.79 0.79 0.79 0.8 0.79 0.79 0.79 0.79 0.8 0.79 0.79 0.79 0.79 0.79 0.8 0.79 0.79 0.79 0.79 0.8 0.79 0.79 0.79 0.79 0.8 0.79 0.79 0.79 0.79 0.8 0.79 0.79 0.79 0.79 0.8 0.79 0.79 0.79 0.79 0.79 0.8 0.79 0.79 0.79 0.79 0.8 0.79 0.79 0.79 0.79 0.8 0.79 0.79 0.79 0.79 0.8 0.79 0.79 0.79 0.79 0.79 0.8 0.79 0.79 0.79 0.79 0.8 0.79 0.79 0.79 0.79 0.8 0.79 0.79 0.79 0.79 0.8 0.79 0.79 0.79 0.79 0.8 0.79 0.79 0.79 0.79 0.79 0.8 0.79 0.79 0.79 0.79 0.8 0.79 0.79 0.79 0.79 0.8 0.79 0.79 0.79 0.79 0.8 l 0.79,0.01 h 0.79 0.79 0.79 0.79 0.8 0.79 0.79 0.79 l 0.79,0.01 h 0.8 l 0.79,0.01 h 0.79 0.79 l 0.79,0.01 h 0.8 l 0.79,0.01 h 0.79 l 0.79,0.01 0.79,0.01 0.8,0.02 0.79,0.03 0.79,0.02 0.79,0.01 0.79,0.02 0.79,0.02 0.8,0.02 0.79,0.03 0.79,0.03 0.79,0.05 0.79,0.05 0.8,0.06 0.79,0.06 0.79,0.07 0.79,0.08 0.79,0.06 0.8,0.06 0.79,0.11 0.79,0.13 0.79,0.13 0.79,0.13 0.8,0.13 0.79,0.16 0.79,0.2 0.79,0.23 0.79,0.24 0.8,0.26 0.79,0.28 0.79,0.32 0.79,0.34 0.79,0.37 0.79,0.4 0.8,0.49 0.79,0.53 0.79,0.54 0.79,0.54 0.79,0.61 0.8,0.65 0.79,0.7 0.79,0.76 0.79,0.86 0.79,0.93 0.8,0.98 0.79,1.02 0.79,1.12 0.79,1.22 0.79,1.32 0.8,1.38 0.79,1.52 0.79,1.66 0.79,1.73 0.79,1.75 0.79,1.82 0.8,1.95 0.79,2.12 0.79,2.27 0.79,2.28 0.79,2.29 0.8,2.49 0.79,2.72 0.79,2.82 0.79,2.86 0.79,2.95 0.8,3.14 0.79,3.3 0.79,3.34 0.79,3.41 0.79,3.57 0.8,3.66 0.79,3.77 0.79,3.87 0.79,3.93 0.79,3.96 0.8,4.08 0.79,4.3 0.79,4.36 0.79,4.25 0.79,4.16 0.79,4.28 0.8,4.37 0.79,4.34 0.79,4.27 0.79,4.27 0.79,4.38 0.8,4.38 0.79,4.27 0.79,4.17 0.79,4.07 0.79,4.12 0.8,4.08 0.79,3.77 0.79,3.4 0.79,3.13 0.79,3.03 0.8,2.95 0.79,2.89 0.79,2.62 0.79,2.44 0.79,2.34 0.79,2.05 0.8,1.76 0.79,1.6 0.79,1.35 0.79,0.9 0.79,0.72 0.8,0.79 0.79,0.55 0.79,0.04 0.79,-0.31 0.79,-0.46 0.8,-0.66 0.79,-1.01 0.79,-1.39 0.79,-1.65 0.79,-1.73 0.8,-1.76 0.79,-1.95 0.79,-2.26 0.79,-2.55 0.79,-2.85 0.79,-3.13 0.8,-3.37 0.79,-3.6 0.79,-3.64 0.79,-3.56 0.79,-3.68 0.8,-3.93 0.79,-3.98 0.79,-3.98 0.79,-4.08 0.79,-4.29 0.8,-4.43 0.79,-4.33 0.79,-4.22 0.79,-4.31 0.79,-4.46 0.8,-4.39 0.79,-4.19 0.79,-4.17 0.79,-4.19 0.79,-4.25 0.8,-4.19 0.79,-4.01 0.79,-3.91 0.79,-3.91 0.79,-3.93 0.79,-3.86 0.8,-3.59 0.79,-3.33 0.79,-3.3 0.79,-3.22 0.79,-3.13 0.8,-3.12 0.79,-3.13 0.79,-2.97 0.79,-2.62 0.79,-2.47 0.8,-2.46 0.79,-2.36 0.79,-2.22 0.79,-2.1 0.79,-1.98 0.8,-1.88 0.79,-1.85 0.79,-1.76 0.79,-1.55 0.79,-1.44 0.79,-1.39 0.8,-1.35 0.79,-1.31 0.79,-1.22 0.79,-1.1 0.79,-1.01 0.8,-0.98 0.79,-0.93 0.79,-0.81 0.79,-0.7 0.79,-0.63 0.8,-0.6 0.79,-0.58 0.79,-0.56 0.79,-0.53 0.79,-0.47 0.8,-0.41 0.79,-0.38 0.79,-0.35 0.79,-0.31 0.79,-0.28 0.8,-0.26 0.79,-0.26 0.79,-0.22 0.79,-0.19 0.79,-0.16 0.79,-0.16 0.8,-0.14 0.79,-0.12 0.79,-0.12 0.79,-0.1 0.79,-0.08 0.8,-0.08 0.79,-0.08 0.79,-0.07 0.79,-0.06 0.79,-0.05 0.8,-0.05 0.79,-0.04 0.79,-0.04 0.79,-0.04 0.79,-0.03 0.8,-0.03 0.79,-0.03 0.79,-0.01 0.79,-0.02 0.79,-0.01 0.79,-0.02 0.8,-0.01 0.79,-0.01 h 0.79 l 0.79,-0.01 0.79,-0.01 0.8,-0.01 h 0.79 0.79 0.79 l 0.79,-0.01 h 0.8 l 0.79,-0.01 h 0.79 0.79 0.79 0.8 0.79 l 0.79,-0.01 h 0.79 0.79 0.79 0.8 0.79 0.79 0.79 0.79 0.8 0.79 0.79 0.79 0.79 0.8 0.79 0.79 0.79 0.79 0.8 0.79 0.79 0.79 0.79 0.8 0.79 0.79 0.79 0.79 0.79 0.8 0.79 0.79 0.79 0.79 0.8 0.79 0.79 0.79 0.79 0.8 0.79 0.79 0.79 0.79 0.8 v 0 h -0.8 -0.79 -0.79 -0.79 -0.79 -0.8 -0.79 -0.79 -0.79 -0.79 -0.8 -0.79 -0.79 -0.79 -0.79 -0.8 -0.79 -0.79 -0.79 -0.79 -0.79 -0.8 -0.79 -0.79 -0.79 -0.79 -0.8 -0.79 -0.79 -0.79 -0.79 -0.8 -0.79 -0.79 -0.79 -0.79 -0.8 -0.79 -0.79 -0.79 -0.79 -0.8 -0.79 -0.79 -0.79 -0.79 -0.79 -0.8 -0.79 -0.79 -0.79 -0.79 -0.8 -0.79 -0.79 -0.79 -0.79 -0.8 -0.79 -0.79 -0.79 -0.79 -0.8 -0.79 -0.79 -0.79 -0.79 -0.79 -0.8 -0.79 -0.79 -0.79 -0.79 -0.8 -0.79 -0.79 -0.79 -0.79 -0.8 -0.79 -0.79 -0.79 -0.79 -0.8 -0.79 -0.79 -0.79 -0.79 -0.79 -0.8 -0.79 -0.79 -0.79 -0.79 -0.8 -0.79 -0.79 -0.79 -0.79 -0.8 -0.79 -0.79 -0.79 -0.79 -0.8 -0.79 -0.79 -0.79 -0.79 -0.8 -0.79 -0.79 -0.79 -0.79 -0.79 -0.8 -0.79 -0.79 -0.79 -0.79 -0.8 -0.79 -0.79 -0.79 -0.79 -0.8 -0.79 -0.79 -0.79 -0.79 -0.8 -0.79 -0.79 -0.79 -0.79 -0.79 -0.8 -0.79 -0.79 -0.79 -0.79 -0.8 -0.79 -0.79 -0.79 -0.79 -0.8 -0.79 -0.79 -0.79 -0.79 -0.8 -0.79 -0.79 -0.79 -0.79 -0.8 -0.79 -0.79 -0.79 -0.79 -0.79 -0.8 -0.79 -0.79 -0.79 -0.79 -0.8 -0.79 -0.79 -0.79 -0.79 -0.8 -0.79 -0.79 -0.79 -0.79 -0.8 -0.79 -0.79 -0.79 -0.79 -0.79 -0.8 -0.79 -0.79 -0.79 -0.79 -0.8 -0.79 -0.79 -0.79 -0.79 -0.8 -0.79 -0.79 -0.79 -0.79 -0.8 -0.79 -0.79 -0.79 -0.79 -0.79 -0.8 -0.79 -0.79 -0.79 -0.79 -0.8 -0.79 -0.79 -0.79 -0.79 -0.8 -0.79 -0.79 -0.79 -0.79 -0.8 -0.79 -0.79 -0.79 -0.79 -0.8 -0.79 -0.79 -0.79 -0.79 -0.79 -0.8 -0.79 -0.79 -0.79 -0.79 -0.8 -0.79 -0.79 -0.79 -0.79 -0.8 -0.79 -0.79 -0.79 -0.79 -0.8 -0.79 -0.79 -0.79 -0.79 -0.79 -0.8 -0.79 -0.79 -0.79 -0.79 -0.8 -0.79 -0.79 -0.79 -0.79 -0.8 -0.79 -0.79 -0.79 -0.79 -0.8 -0.79 -0.79 -0.79 -0.79 -0.8 -0.79 -0.79 -0.79 -0.79 -0.79 -0.8 -0.79 -0.79 -0.79 -0.79 -0.8 -0.79 -0.79 -0.79 -0.79 -0.8 -0.79 -0.79 -0.79 -0.79 -0.8 -0.79 -0.79 -0.79 -0.79 -0.79 -0.8 -0.79 -0.79 -0.79 -0.79 -0.8 -0.79 -0.79 -0.79 -0.79 -0.8 -0.79 -0.79 -0.79 -0.79 -0.8 -0.79 -0.79 -0.79 -0.79 -0.79 -0.8 -0.79 -0.79 -0.79 -0.79 -0.8 -0.79 -0.79 -0.79 -0.79 -0.8 -0.79 -0.79 -0.79 -0.79 -0.8 -0.79 -0.79 -0.79 -0.79 -0.8 -0.79 -0.79 -0.79 -0.79 -0.79 -0.8 -0.79 -0.79 -0.79 -0.79 -0.8 -0.79 -0.79 -0.79 -0.79 -0.8 -0.79 -0.79 -0.79 -0.79 -0.8 -0.79 -0.79 -0.79 -0.79 -0.79 -0.8 -0.79 -0.79 -0.79 -0.79 -0.8 -0.79 -0.79 -0.79 -0.79 -0.8 -0.79 -0.79 -0.79 -0.79 -0.8 -0.79 -0.79 -0.79 -0.79 -0.8 -0.79 -0.79 -0.79 -0.79 -0.79 -0.8 -0.79 -0.79 -0.79 -0.79 -0.8 -0.79 -0.79 -0.79 -0.79 -0.8 -0.79 -0.79 -0.79 -0.79 -0.8 -0.79 -0.79 -0.79 -0.79 -0.79 -0.8 -0.79 -0.79 -0.79 -0.79 -0.8 -0.79 -0.79 -0.79 -0.79 -0.8 -0.79 -0.79 -0.79 -0.79 -0.8 -0.79 -0.79 -0.79 -0.79 -0.79 -0.8 -0.79 -0.79 -0.79 -0.79 -0.8 -0.79 -0.79 -0.79 -0.79 -0.8 -0.79 -0.79 -0.79 -0.79 -0.8 -0.79 -0.79 -0.79 -0.79 -0.8 -0.79 -0.79 -0.79 -0.79 -0.79 -0.8 -0.79 -0.79 -0.79 -0.79 -0.8 -0.79 -0.79 -0.79 -0.79 -0.8 -0.79 -0.79 -0.79 -0.79 -0.8 -0.79 -0.79 -0.79 -0.79 -0.79 -0.8 -0.79 -0.79 -0.79 -0.79 -0.8 -0.79 -0.79 -0.79 -0.79 -0.8 -0.79 -0.79 -0.79 -0.79 -0.8 -0.79 -0.79 -0.79 -0.79 -0.8 -0.79 -0.79 -0.79 -0.79 -0.79 -0.8 -0.79 -0.79 z"
           style="fill:#998ec3;fill-opacity:0.50199998;fill-rule:nonzero;stroke:#998ec3;stroke-width:1.07000005;stroke-linecap:round;stroke-linejoin:round;stroke-miterlimit:10;stroke-dasharray:none;stroke-opacity:1"
           id="path44"
           inkscape:connector-curvature="0" /><path
           d="m 25.81,72.26 h 0.79 0.79 0.79 0.8 0.79 0.79 0.79 0.79 0.79 0.8 0.79 0.79 0.79 0.79 0.8 0.79 0.79 0.79 0.79 0.8 0.79 0.79 0.79 0.79 0.8 0.79 0.79 0.79 0.79 0.8 0.79 0.79 0.79 0.79 0.79 0.8 0.79 0.79 0.79 0.79 0.8 0.79 0.79 0.79 0.79 0.8 0.79 0.79 0.79 0.79 0.8 0.79 0.79 0.79 0.79 0.79 0.8 0.79 0.79 0.79 0.79 0.8 0.79 0.79 0.79 0.79 0.8 0.79 0.79 0.79 0.79 0.8 0.79 0.79 0.79 0.79 0.8 0.79 0.79 0.79 0.79 0.79 0.8 0.79 0.79 0.79 0.79 0.8 0.79 0.79 0.79 0.79 0.8 0.79 0.79 0.79 0.79 0.8 0.79 0.79 0.79 0.79 0.79 0.8 0.79 0.79 0.79 0.79 0.8 0.79 0.79 0.79 0.79 0.8 0.79 0.79 0.79 0.79 0.8 0.79 0.79 0.79 0.79 0.79 0.8 0.79 0.79 0.79 0.79 0.8 0.79 0.79 0.79 0.79 0.8 0.79 0.79 0.79 0.79 0.8 0.79 0.79 0.79 0.79 0.8 0.79 0.79 0.79 0.79 0.79 0.8 0.79 0.79 0.79 0.79 0.8 0.79 0.79 0.79 0.79 0.8 0.79 0.79 0.79 0.79 0.8 0.79 0.79 0.79 0.79 0.79 0.8 0.79 0.79 0.79 0.79 0.8 0.79 0.79 0.79 0.79 0.8 0.79 l 0.79,0.01 h 0.79 0.79 0.8 0.79 0.79 0.79 0.79 0.8 l 0.79,0.01 h 0.79 0.79 0.79 0.79 l 0.8,0.01 0.79,0.01 0.79,0.01 0.79,0.01 0.79,0.01 h 0.8 l 0.79,0.02 0.79,0.02 0.79,0.01 0.79,0.02 0.8,0.01 0.79,0.02 0.79,0.04 0.79,0.04 0.79,0.03 0.8,0.04 0.79,0.05 0.79,0.05 0.79,0.06 0.79,0.07 0.79,0.07 0.8,0.08 0.79,0.08 0.79,0.08 0.79,0.1 0.79,0.1 0.8,0.12 0.79,0.15 0.79,0.16 0.79,0.18 0.79,0.2 0.8,0.25 0.79,0.28 0.79,0.29 0.79,0.3 0.79,0.33 0.8,0.36 0.79,0.41 0.79,0.46 0.79,0.5 0.79,0.52 0.79,0.56 0.8,0.61 0.79,0.65 0.79,0.71 0.79,0.78 0.79,0.88 0.8,0.94 0.79,0.99 0.79,1.05 0.79,1.08 0.79,1.17 0.8,1.25 0.79,1.36 0.79,1.48 0.79,1.64 0.79,1.72 0.8,1.72 0.79,1.8 0.79,1.95 0.79,2.1 0.79,2.22 0.8,2.24 0.79,2.32 0.79,2.56 0.79,2.72 0.79,2.78 0.79,2.82 0.8,2.95 0.79,3.1 0.79,3.25 0.79,3.38 0.79,3.43 0.8,3.47 0.79,3.53 0.79,3.58 0.79,3.69 0.79,3.94 0.8,4.22 0.79,4.3 0.79,4.27 0.79,4.22 0.79,4.18 0.8,4.35 0.79,4.5 0.79,4.39 0.79,4.28 0.79,4.33 0.79,4.36 0.8,4.27 0.79,4.15 0.79,4.2 0.79,4.2 0.79,4.09 0.8,4.01 0.79,3.9 0.79,3.56 0.79,3.23 0.79,3.2 0.8,3.24 0.79,3.17 0.79,3.09 0.79,2.98 0.79,2.63 0.8,2.21 0.79,2.08 0.79,2.08 0.79,1.77 0.79,1.26 0.8,0.97 0.79,0.79 0.79,0.7 0.79,0.56 0.79,0.02 0.79,-0.42 0.8,-0.4 0.79,-0.55 0.79,-1.06 0.79,-1.36 0.79,-1.44 0.8,-1.7 0.79,-2 0.79,-2.09 0.79,-2.17 0.79,-2.55 0.8,-2.87 0.79,-2.96 0.79,-3.16 0.79,-3.43 0.79,-3.71 0.8,-3.83 0.79,-3.75 0.79,-3.7 0.79,-3.94 0.79,-4.17 0.79,-4.2 0.8,-4.12 0.79,-4.13 0.79,-4.24 0.79,-4.38 0.79,-4.43 0.8,-4.3 0.79,-4.32 0.79,-4.47 0.79,-4.4 0.79,-4.19 0.8,-4.02 0.79,-3.98 0.79,-4.04 0.79,-4.04 0.79,-3.99 0.8,-3.9 0.79,-3.8 0.79,-3.65 0.79,-3.54 0.79,-3.47 0.79,-3.31 0.8,-3.11 0.79,-2.92 0.79,-2.79 0.79,-2.77 0.79,-2.81 0.8,-2.68 0.79,-2.45 0.79,-2.28 0.79,-2.18 0.79,-2.07 0.8,-2 0.79,-2 0.79,-1.92 0.79,-1.78 0.79,-1.65 0.8,-1.52 0.79,-1.39 0.79,-1.36 0.79,-1.35 0.79,-1.22 0.8,-1.08 0.79,-0.98 0.79,-0.89 0.79,-0.85 0.79,-0.83 0.79,-0.78 0.8,-0.69 0.79,-0.64 0.79,-0.6 0.79,-0.57 0.79,-0.54 0.8,-0.49 0.79,-0.41 0.79,-0.37 0.79,-0.34 0.79,-0.32 0.8,-0.32 0.79,-0.28 0.79,-0.21 0.79,-0.2 0.79,-0.2 0.8,-0.19 0.79,-0.15 0.79,-0.15 0.79,-0.14 0.79,-0.13 0.79,-0.12 0.8,-0.11 0.79,-0.09 0.79,-0.08 0.79,-0.07 0.79,-0.05 0.8,-0.04 0.79,-0.06 0.79,-0.05 0.79,-0.04 0.79,-0.03 0.8,-0.03 0.79,-0.02 0.79,-0.02 0.79,-0.02 0.79,-0.03 0.8,-0.01 0.79,-0.01 0.79,-0.01 0.79,-0.01 0.79,-0.01 0.8,-0.01 0.79,-0.01 0.79,-0.01 h 0.79 l 0.79,-0.01 h 0.79 0.8 l 0.79,-0.01 h 0.79 0.79 0.79 0.8 0.79 0.79 l 0.79,-0.01 h 0.79 0.8 0.79 0.79 0.79 0.79 0.8 0.79 0.79 0.79 0.79 0.79 0.8 0.79 0.79 0.79 0.79 0.8 0.79 0.79 0.79 0.79 0.8 0.79 0.79 0.79 0.79 0.8 0.79 0.79 0.79 0.79 0.79 0.8 0.79 0.79 0.79 0.79 0.8 0.79 0.79 0.79 0.79 0.8 0.79 0.79 0.79 0.79 0.8 0.79 0.79 0.79 0.79 0.8 0.79 0.79 0.79 0.79 0.79 0.8 0.79 0.79 0.79 0.79 0.8 0.79 0.79 0.79 0.79 0.8 0.79 0.79 0.79 0.79 0.8 v 0 h -0.8 -0.79 -0.79 -0.79 -0.79 -0.8 -0.79 -0.79 -0.79 -0.79 -0.8 -0.79 -0.79 -0.79 -0.79 -0.8 -0.79 -0.79 -0.79 -0.79 -0.79 -0.8 -0.79 -0.79 -0.79 -0.79 -0.8 -0.79 -0.79 -0.79 -0.79 -0.8 -0.79 -0.79 -0.79 -0.79 -0.8 -0.79 -0.79 -0.79 -0.79 -0.8 -0.79 -0.79 -0.79 -0.79 -0.79 -0.8 -0.79 -0.79 -0.79 -0.79 -0.8 -0.79 -0.79 -0.79 -0.79 -0.8 -0.79 -0.79 -0.79 -0.79 -0.8 -0.79 -0.79 -0.79 -0.79 -0.79 -0.8 -0.79 -0.79 -0.79 -0.79 -0.8 -0.79 -0.79 -0.79 -0.79 -0.8 -0.79 -0.79 -0.79 -0.79 -0.8 -0.79 -0.79 -0.79 -0.79 -0.79 -0.8 -0.79 -0.79 -0.79 -0.79 -0.8 -0.79 -0.79 -0.79 -0.79 -0.8 -0.79 -0.79 -0.79 -0.79 -0.8 -0.79 -0.79 -0.79 -0.79 -0.8 -0.79 -0.79 -0.79 -0.79 -0.79 -0.8 -0.79 -0.79 -0.79 -0.79 -0.8 -0.79 -0.79 -0.79 -0.79 -0.8 -0.79 -0.79 -0.79 -0.79 -0.8 -0.79 -0.79 -0.79 -0.79 -0.79 -0.8 -0.79 -0.79 -0.79 -0.79 -0.8 -0.79 -0.79 -0.79 -0.79 -0.8 -0.79 -0.79 -0.79 -0.79 -0.8 -0.79 -0.79 -0.79 -0.79 -0.8 -0.79 -0.79 -0.79 -0.79 -0.79 -0.8 -0.79 -0.79 -0.79 -0.79 -0.8 -0.79 -0.79 -0.79 -0.79 -0.8 -0.79 -0.79 -0.79 -0.79 -0.8 -0.79 -0.79 -0.79 -0.79 -0.79 -0.8 -0.79 -0.79 -0.79 -0.79 -0.8 -0.79 -0.79 -0.79 -0.79 -0.8 -0.79 -0.79 -0.79 -0.79 -0.8 -0.79 -0.79 -0.79 -0.79 -0.79 -0.8 -0.79 -0.79 -0.79 -0.79 -0.8 -0.79 -0.79 -0.79 -0.79 -0.8 -0.79 -0.79 -0.79 -0.79 -0.8 -0.79 -0.79 -0.79 -0.79 -0.8 -0.79 -0.79 -0.79 -0.79 -0.79 -0.8 -0.79 -0.79 -0.79 -0.79 -0.8 -0.79 -0.79 -0.79 -0.79 -0.8 -0.79 -0.79 -0.79 -0.79 -0.8 -0.79 -0.79 -0.79 -0.79 -0.79 -0.8 -0.79 -0.79 -0.79 -0.79 -0.8 -0.79 -0.79 -0.79 -0.79 -0.8 -0.79 -0.79 -0.79 -0.79 -0.8 -0.79 -0.79 -0.79 -0.79 -0.8 -0.79 -0.79 -0.79 -0.79 -0.79 -0.8 -0.79 -0.79 -0.79 -0.79 -0.8 -0.79 -0.79 -0.79 -0.79 -0.8 -0.79 -0.79 -0.79 -0.79 -0.8 -0.79 -0.79 -0.79 -0.79 -0.79 -0.8 -0.79 -0.79 -0.79 -0.79 -0.8 -0.79 -0.79 -0.79 -0.79 -0.8 -0.79 -0.79 -0.79 -0.79 -0.8 -0.79 -0.79 -0.79 -0.79 -0.79 -0.8 -0.79 -0.79 -0.79 -0.79 -0.8 -0.79 -0.79 -0.79 -0.79 -0.8 -0.79 -0.79 -0.79 -0.79 -0.8 -0.79 -0.79 -0.79 -0.79 -0.8 -0.79 -0.79 -0.79 -0.79 -0.79 -0.8 -0.79 -0.79 -0.79 -0.79 -0.8 -0.79 -0.79 -0.79 -0.79 -0.8 -0.79 -0.79 -0.79 -0.79 -0.8 -0.79 -0.79 -0.79 -0.79 -0.79 -0.8 -0.79 -0.79 -0.79 -0.79 -0.8 -0.79 -0.79 -0.79 -0.79 -0.8 -0.79 -0.79 -0.79 -0.79 -0.8 -0.79 -0.79 -0.79 -0.79 -0.8 -0.79 -0.79 -0.79 -0.79 -0.79 -0.8 -0.79 -0.79 -0.79 -0.79 -0.8 -0.79 -0.79 -0.79 -0.79 -0.8 -0.79 -0.79 -0.79 -0.79 -0.8 -0.79 -0.79 -0.79 -0.79 -0.79 -0.8 -0.79 -0.79 -0.79 -0.79 -0.8 -0.79 -0.79 -0.79 -0.79 -0.8 -0.79 -0.79 -0.79 -0.79 -0.8 -0.79 -0.79 -0.79 -0.79 -0.79 -0.8 -0.79 -0.79 -0.79 -0.79 -0.8 -0.79 -0.79 -0.79 -0.79 -0.8 -0.79 -0.79 -0.79 -0.79 -0.8 -0.79 -0.79 -0.79 -0.79 -0.8 -0.79 -0.79 -0.79 -0.79 -0.79 -0.8 -0.79 -0.79 -0.79 -0.79 -0.8 -0.79 -0.79 -0.79 -0.79 -0.8 -0.79 -0.79 -0.79 -0.79 -0.8 -0.79 -0.79 -0.79 -0.79 -0.79 -0.8 -0.79 -0.79 -0.79 -0.79 -0.8 -0.79 -0.79 -0.79 -0.79 -0.8 -0.79 -0.79 -0.79 -0.79 -0.8 -0.79 -0.79 -0.79 -0.79 -0.8 -0.79 -0.79 -0.79 -0.79 -0.79 -0.8 -0.79 -0.79 z"
           style="fill:#ffffff;fill-opacity:0.50199998;fill-rule:nonzero;stroke:#bebebe;stroke-width:1.07000005;stroke-linecap:round;stroke-linejoin:round;stroke-miterlimit:10;stroke-dasharray:none;stroke-opacity:1"
           id="path46"
           inkscape:connector-curvature="0" /></g></g><g
       id="g48" /><g
       id="g50" /><g
       id="g52" /><g
       id="g54" /><g
       id="g56" /><g
       id="g58" /><g
       id="g60" /><g
       id="g62" /><g
       id="g64" /><g
       id="g66" /><g
       id="g68" /><g
       id="g70" /><g
       id="g72" /><g
       id="g74" /><g
       id="g76" /><g
       id="g78" /><g
       id="g80" /><g
       id="g82" /><g
       id="g84" /><g
       id="g86" /><g
       id="g88" /><g
       id="g90" /><g
       id="g92" /><g
       id="g94" /><g
       id="g96"
       inkscape:export-filename="/Users/timoroettger/repos/bayes_mixed_regression_tutorial/text/pics/prior_post.png"
       inkscape:export-xdpi="300"
       inkscape:export-ydpi="300"><path
         d="m 93.25,59.73 v 2.74"
         style="fill:none;stroke:#333333;stroke-width:1.07000005;stroke-linecap:butt;stroke-linejoin:round;stroke-miterlimit:10;stroke-dasharray:none;stroke-opacity:1"
         id="path98"
         inkscape:connector-curvature="0" /><path
         d="m 160.7,59.73 v 2.74"
         style="fill:none;stroke:#333333;stroke-width:1.07000005;stroke-linecap:butt;stroke-linejoin:round;stroke-miterlimit:10;stroke-dasharray:none;stroke-opacity:1"
         id="path100"
         inkscape:connector-curvature="0" /><path
         d="m 228.14,59.73 v 2.74"
         style="fill:none;stroke:#333333;stroke-width:1.07000005;stroke-linecap:butt;stroke-linejoin:round;stroke-miterlimit:10;stroke-dasharray:none;stroke-opacity:1"
         id="path102"
         inkscape:connector-curvature="0" /><path
         d="m 295.59,59.73 v 2.74"
         style="fill:none;stroke:#333333;stroke-width:1.07000005;stroke-linecap:butt;stroke-linejoin:round;stroke-miterlimit:10;stroke-dasharray:none;stroke-opacity:1"
         id="path104"
         inkscape:connector-curvature="0" /><path
         d="m 363.03,59.73 v 2.74"
         style="fill:none;stroke:#333333;stroke-width:1.07000005;stroke-linecap:butt;stroke-linejoin:round;stroke-miterlimit:10;stroke-dasharray:none;stroke-opacity:1"
         id="path106"
         inkscape:connector-curvature="0" /></g><g
       id="g108" /><g
       id="g110"
       inkscape:export-filename="/Users/timoroettger/repos/bayes_mixed_regression_tutorial/text/pics/prior_post.png"
       inkscape:export-xdpi="300"
       inkscape:export-ydpi="300"><text
         transform="matrix(1,0,0,-1,75.24,46.05)"
         style="font-variant:normal;font-weight:normal;font-size:16px;font-family:Helvetica;-inkscape-font-specification:Helvetica;writing-mode:lr-tb;fill:#4d4d4d;fill-opacity:1;fill-rule:nonzero;stroke:none"
         id="text114"><tspan
           x="0 9.3439999 18.24 27.136"
           y="0"
           sodipodi:role="line"
           id="tspan112">−200</tspan></text>
<text
         transform="matrix(1,0,0,-1,142.68,46.05)"
         style="font-variant:normal;font-weight:normal;font-size:16px;font-family:Helvetica;-inkscape-font-specification:Helvetica;writing-mode:lr-tb;fill:#4d4d4d;fill-opacity:1;fill-rule:nonzero;stroke:none"
         id="text118"><tspan
           x="0 9.3439999 18.24 27.136"
           y="0"
           sodipodi:role="line"
           id="tspan116">−100</tspan></text>
<text
         transform="matrix(1,0,0,-1,223.69,46.05)"
         style="font-variant:normal;font-weight:normal;font-size:16px;font-family:Helvetica;-inkscape-font-specification:Helvetica;writing-mode:lr-tb;fill:#4d4d4d;fill-opacity:1;fill-rule:nonzero;stroke:none"
         id="text122"><tspan
           x="0"
           y="0"
           id="tspan120">0</tspan></text>
<text
         transform="matrix(1,0,0,-1,282.24,46.05)"
         style="font-variant:normal;font-weight:normal;font-size:16px;font-family:Helvetica;-inkscape-font-specification:Helvetica;writing-mode:lr-tb;fill:#4d4d4d;fill-opacity:1;fill-rule:nonzero;stroke:none"
         id="text126"><tspan
           x="0 8.8959999 17.792"
           y="0"
           sodipodi:role="line"
           id="tspan124">100</tspan></text>
<text
         transform="matrix(1,0,0,-1,349.69,46.05)"
         style="font-variant:normal;font-weight:normal;font-size:16px;font-family:Helvetica;-inkscape-font-specification:Helvetica;writing-mode:lr-tb;fill:#4d4d4d;fill-opacity:1;fill-rule:nonzero;stroke:none"
         id="text130"><tspan
           x="0 8.8959999 17.792"
           y="0"
           sodipodi:role="line"
           id="tspan128">200</tspan></text>
</g><g
       id="g132" /><g
       id="g134" /><g
       id="g136" /><g
       id="g138" /><g
       id="g140" /><g
       id="g142"
       inkscape:export-filename="/Users/timoroettger/repos/bayes_mixed_regression_tutorial/text/pics/prior_post.png"
       inkscape:export-xdpi="300"
       inkscape:export-ydpi="300"><text
         transform="matrix(1,0,0,-1,69.22,8.31)"
         style="font-variant:normal;font-weight:bold;font-size:18px;font-family:Helvetica;-inkscape-font-specification:Helvetica-Bold;writing-mode:lr-tb;fill:#000000;fill-opacity:1;fill-rule:nonzero;stroke:none"
         id="text146"><tspan
           x="0 10.998 16.002001 21.996 31.823999 42.821999 47.826 58.824001 63.827999 69.821999 75.636002 85.643997 92.646004 102.654 113.652 123.66 133.668 138.672 143.67599 154.674 159.67799 172.674 181.674 186.67799 192.672 206.31599 217.314 233.31599 243.32401 254.32201 259.32599 269.83801 274.84201 290.84399 300.85199 311.85001"
           y="0"
           sodipodi:role="line"
           id="tspan144">pitch difference in Hz (women − men)</tspan></text>
</g><g
       id="g148" /><g
       id="g150" /><g
       id="g152" /><g
       id="g154" /><g
       id="g156" /><g
       id="g158" /><g
       id="g160" /><g
       id="g162" /><g
       id="g164" /><g
       id="g166" /><g
       id="g168" /><g
       id="g170" /><g
       id="g172" /><g
       id="g174" /><text
       xml:space="preserve"
       style="font-style:normal;font-weight:normal;font-size:30px;line-height:125%;font-family:sans-serif;letter-spacing:0px;word-spacing:0px;fill:#473c72;fill-opacity:0.77254902;stroke:none;stroke-width:0.75px;stroke-linecap:butt;stroke-linejoin:miter;stroke-opacity:1"
       x="331.14438"
       y="-260.23404"
       id="text983"
       transform="scale(1,-1)"
       inkscape:export-filename="/Users/timoroettger/repos/bayes_mixed_regression_tutorial/text/pics/prior_post.png"
       inkscape:export-xdpi="300"
       inkscape:export-ydpi="300"><tspan
         sodipodi:role="line"
         x="331.14438"
         y="-260.23404"
         style="font-size:15px;fill:#473c72;fill-opacity:0.77254902;stroke-width:0.75px"
         id="tspan985">posterior </tspan></text>
<text
       xml:space="preserve"
       style="font-style:normal;font-weight:normal;font-size:30px;line-height:125%;font-family:sans-serif;letter-spacing:0px;word-spacing:0px;fill:#5e5e5e;fill-opacity:1;stroke:none;stroke-width:0.75px;stroke-linecap:butt;stroke-linejoin:miter;stroke-opacity:1"
       x="170.37363"
       y="-258.84967"
       id="text983-1"
       transform="scale(1,-1)"
       inkscape:export-filename="/Users/timoroettger/repos/bayes_mixed_regression_tutorial/text/pics/prior_post.png"
       inkscape:export-xdpi="300"
       inkscape:export-ydpi="300"><tspan
         sodipodi:role="line"
         x="170.37363"
         y="-258.84967"
         style="font-size:15px;fill:#5e5e5e;fill-opacity:1;stroke-width:0.75px"
         id="tspan985-7">likelihood</tspan></text>
<text
       xml:space="preserve"
       style="font-style:normal;font-weight:normal;font-size:30px;line-height:125%;font-family:sans-serif;letter-spacing:0px;word-spacing:0px;fill:#dd8410;fill-opacity:0.94117647;stroke:none;stroke-width:0.75px;stroke-linecap:butt;stroke-linejoin:miter;stroke-opacity:1"
       x="142.14719"
       y="-158.336"
       id="text983-1-4"
       transform="scale(1,-1)"
       inkscape:export-filename="/Users/timoroettger/repos/bayes_mixed_regression_tutorial/text/pics/prior_post.png"
       inkscape:export-xdpi="300"
       inkscape:export-ydpi="300"><tspan
         sodipodi:role="line"
         x="142.14719"
         y="-158.336"
         style="font-size:15px;fill:#dd8410;fill-opacity:0.94117647;stroke-width:0.75px"
         id="tspan985-7-5">prior </tspan></text>
<path
       style="fill:none;fill-rule:evenodd;stroke:#dd8410;stroke-width:0.75px;stroke-linecap:butt;stroke-linejoin:miter;stroke-opacity:0.94117647"
       d="m 181.06231,156.96655 23.4073,-9.63829"
       id="path1025"
       inkscape:connector-curvature="0"
       inkscape:export-filename="/Users/timoroettger/repos/bayes_mixed_regression_tutorial/text/pics/prior_post.png"
       inkscape:export-xdpi="300"
       inkscape:export-ydpi="300" /><path
       style="fill:none;fill-rule:evenodd;stroke:#5e5e5e;stroke-width:0.75px;stroke-linecap:butt;stroke-linejoin:miter;stroke-opacity:1"
       d="m 240.31279,254.18978 22.71885,-22.03039"
       id="path1025-1"
       inkscape:connector-curvature="0"
       sodipodi:nodetypes="cc"
       inkscape:export-filename="/Users/timoroettger/repos/bayes_mixed_regression_tutorial/text/pics/prior_post.png"
       inkscape:export-xdpi="300"
       inkscape:export-ydpi="300" /><path
       style="fill:none;fill-rule:evenodd;stroke:#473c72;stroke-width:0.75px;stroke-linecap:butt;stroke-linejoin:miter;stroke-opacity:0.77254902"
       d="m 302.57371,236.13828 25.47265,22.0304"
       id="path1025-1-7"
       inkscape:connector-curvature="0"
       sodipodi:nodetypes="cc"
       inkscape:export-filename="/Users/timoroettger/repos/bayes_mixed_regression_tutorial/text/pics/prior_post.png"
       inkscape:export-xdpi="300"
       inkscape:export-ydpi="300" /></g></svg>